<?xml version="1.0" standalone="no"?>
<!DOCTYPE svg PUBLIC "-//W3C//DTD SVG 20010904//EN"
 "http://www.w3.org/TR/2001/REC-SVG-20010904/DTD/svg10.dtd">
<svg version="1.0" xmlns="http://www.w3.org/2000/svg"
 width="260.000000pt" height="260.000000pt" viewBox="0 0 260.000000 260.000000"
 preserveAspectRatio="xMidYMid meet">
<metadata>
Created by potrace 1.14, written by Peter Selinger 2001-2017
</metadata>
<g transform="translate(0.000000,260.000000) scale(0.100000,-0.100000)"
fill="#000000" stroke="none">
<path d="M0 1300 l0 -1300 1300 0 1300 0 0 1300 0 1300 -1300 0 -1300 0 0
-1300z m853 914 c14 -4 17 -17 17 -72 0 -83 24 -228 51 -304 56 -159 179 -305
369 -438 109 -76 263 -196 315 -245 120 -114 218 -291 261 -474 20 -86 37
-278 25 -298 -12 -23 -130 -25 -141 -3 -4 8 -10 60 -13 115 -13 204 -84 383
-207 519 -43 47 -158 140 -282 226 -179 125 -271 210 -352 323 -51 71 -116
193 -116 218 0 9 -6 29 -14 45 -8 16 -20 65 -26 109 -7 44 -16 99 -21 122 -10
47 -12 147 -3 156 7 7 113 8 137 1z m1035 -74 c6 -150 -53 -370 -138 -514 -51
-86 -186 -240 -220 -251 -22 -7 -64 13 -109 51 l-31 26 90 90 c158 157 239
308 243 450 l2 63 -357 3 -358 2 0 73 c0 41 3 77 7 80 3 4 200 6 437 5 l431
-3 3 -75z m-733 -951 c30 -23 55 -45 55 -49 0 -3 -29 -31 -64 -61 -102 -87
-191 -217 -234 -344 -20 -60 -45 -184 -39 -199 6 -14 48 -16 362 -16 l355 0 0
-75 c0 -41 -3 -75 -7 -75 -5 0 -201 0 -438 -1 l-430 0 1 98 c2 218 59 401 179
568 42 60 178 195 196 195 4 0 33 -19 64 -41z"/>
</g>
</svg>
